<svg xmlns="http://www.w3.org/2000/svg" viewBox="0 0 9.83 9.83"><defs><style>.cls-1{fill:#f1f3f4;}</style></defs><title>Asset 3</title><g id="Layer_2" data-name="Layer 2"><g id="Layer_1-2" data-name="Layer 1"><path class="cls-1" d="M8.6,0H1.23A1.21,1.21,0,0,0,0,1.23V8.6A1.21,1.21,0,0,0,1.23,9.83H8.6A1.21,1.21,0,0,0,9.83,8.6V1.23A1.21,1.21,0,0,0,8.6,0ZM4.92,3a1.94,1.94,0,0,1,2,1.91,1.94,1.94,0,0,1-2,1.91,1.94,1.94,0,0,1-2-1.91A1.94,1.94,0,0,1,4.92,3ZM8.6,8.29c0,.22-.09.31-.31.31H1.54c-.21,0-.31-.09-.31-.31V4L2,4.16A2.86,2.86,0,0,0,1.87,5,3,3,0,0,0,4.92,8,3,3,0,0,0,8,5a2.86,2.86,0,0,0-.13-.84L8.6,4v4.3Zm0-5.53a.31.31,0,0,1-.31.31H7.06a.31.31,0,0,1-.31-.31V1.54a.31.31,0,0,1,.31-.31H8.29a.31.31,0,0,1,.31.31Z"/></g></g></svg>