<svg xmlns="http://www.w3.org/2000/svg" viewBox="0 0 163.33 103.7"><defs><style>.cls-1{fill:#231f20;}.cls-2{fill:#a41e22;}</style></defs><title>Asset 3</title><g id="Layer_2" data-name="Layer 2"><g id="Layer_1-2" data-name="Layer 1"><path class="cls-1" d="M.06,101.9l1-.75a.14.14,0,0,1,.2,0,1.7,1.7,0,0,0,1.24.57c1,0,1.54-.61,1.54-1.83v-6a.13.13,0,0,1,.14-.14H5.52a.13.13,0,0,1,.14.14v6a3,3,0,0,1-3.21,3.28A3,3,0,0,1,0,102.09.13.13,0,0,1,.06,101.9Z"/><path class="cls-1" d="M19.07,93.9a.13.13,0,0,1,.14-.14H25a.13.13,0,0,1,.14.14v1.17a.13.13,0,0,1-.14.14H20.76a.07.07,0,0,0-.08.08v2.36a.07.07,0,0,0,.08.08h3.59a.13.13,0,0,1,.14.14v1.17a.13.13,0,0,1-.14.14H20.76a.07.07,0,0,0-.08.08v3.65a.13.13,0,0,1-.14.14H19.2a.13.13,0,0,1-.14-.14Z"/><path class="cls-1" d="M32.55,93.9a.13.13,0,0,1,.14-.14H38.5a.13.13,0,0,1,.14.14v1.17a.13.13,0,0,1-.14.14H34.24a.07.07,0,0,0-.08.08v2.27a.07.07,0,0,0,.08.08h3.59a.13.13,0,0,1,.14.14V99a.13.13,0,0,1-.14.14H34.24a.07.07,0,0,0-.08.08v2.35a.07.07,0,0,0,.08.08H38.5a.13.13,0,0,1,.14.14v1.18a.13.13,0,0,1-.14.14H32.68a.13.13,0,0,1-.14-.14Z"/><path class="cls-1" d="M56.67,99.76V93.9a.13.13,0,0,1,.14-.14h1.34a.13.13,0,0,1,.14.14v5.89a3.42,3.42,0,0,1-6.85,0V93.9a.13.13,0,0,1,.14-.14h1.34a.13.13,0,0,1,.14.14v5.86a1.82,1.82,0,1,0,3.62,0Z"/><path class="cls-1" d="M61.57,93.9a.13.13,0,0,1,.14-.14H63a.13.13,0,0,1,.14.14v9a.13.13,0,0,1-.14.14H61.71a.13.13,0,0,1-.14-.14Z"/><path class="cls-1" d="M66.66,103.06a.13.13,0,0,1-.14-.14v-9a.13.13,0,0,1,.14-.14h3.48a2.9,2.9,0,1,1,0,5.78H68.22a.07.07,0,0,0-.08.08v3.29a.13.13,0,0,1-.14.14Zm4.93-6.41a1.4,1.4,0,0,0-1.54-1.43H68.22a.07.07,0,0,0-.08.08V98a.07.07,0,0,0,.08.08h1.83A1.39,1.39,0,0,0,71.6,96.65Z"/><path class="cls-1" d="M76,93.9a.13.13,0,0,1,.14-.14h1.22a.22.22,0,0,1,.23.14l2.56,5.73h.05L82.7,93.9a.22.22,0,0,1,.23-.14h1.2a.13.13,0,0,1,.14.14v9a.13.13,0,0,1-.14.14H82.95a.13.13,0,0,1-.14-.14V97.24h-.06l-2,4.37a.26.26,0,0,1-.26.18h-.79a.26.26,0,0,1-.26-.18l-2-4.37h-.05v5.68a.13.13,0,0,1-.14.14H76.13a.13.13,0,0,1-.14-.14Z"/><path class="cls-1" d="M87.61,93.9a.13.13,0,0,1,.14-.14h5.82a.13.13,0,0,1,.14.14v1.17a.13.13,0,0,1-.14.14H89.31a.07.07,0,0,0-.08.08v2.27a.07.07,0,0,0,.08.08H92.9a.13.13,0,0,1,.14.14V99a.13.13,0,0,1-.14.14H89.31a.07.07,0,0,0-.08.08v2.35a.07.07,0,0,0,.08.08h4.26a.13.13,0,0,1,.14.14v1.18a.13.13,0,0,1-.14.14H87.75a.13.13,0,0,1-.14-.14Z"/><path class="cls-1" d="M96.7,93.9a.13.13,0,0,1,.14-.14h1.26a.24.24,0,0,1,.23.14l3.78,6.41h.05V93.9a.13.13,0,0,1,.14-.14h1.19a.13.13,0,0,1,.14.14v9a.13.13,0,0,1-.14.14h-1.24a.24.24,0,0,1-.23-.14l-3.8-6.4h-.05v6.4a.13.13,0,0,1-.14.14H96.83a.13.13,0,0,1-.14-.14Z"/><path class="cls-1" d="M109,103.06a.13.13,0,0,1-.14-.14V95.3a.07.07,0,0,0-.08-.08h-2.43a.13.13,0,0,1-.14-.14V93.9a.13.13,0,0,1,.14-.14H113a.13.13,0,0,1,.14.14v1.17a.13.13,0,0,1-.14.14h-2.43a.07.07,0,0,0-.08.08v7.63a.13.13,0,0,1-.14.14Z"/><path class="cls-1" d="M119.65,102a.15.15,0,0,1,0-.2l.85-1a.12.12,0,0,1,.19,0,4.15,4.15,0,0,0,2.53,1c1.11,0,1.75-.56,1.75-1.34s-.41-1.11-1.69-1.29l-.49-.07C121,98.82,120,98,120,96.42s1.23-2.8,3.14-2.8a5.11,5.11,0,0,1,3,.93.12.12,0,0,1,0,.19l-.66,1a.14.14,0,0,1-.19,0,3.92,3.92,0,0,0-2.23-.72c-.94,0-1.46.52-1.46,1.24s.45,1.08,1.71,1.26l.49.07c1.79.25,2.77,1.09,2.77,2.69s-1.19,2.88-3.5,2.88A5.24,5.24,0,0,1,119.65,102Z"/><path class="cls-1" d="M131.77,93.9a.18.18,0,0,1,.18-.14h1.26a.18.18,0,0,1,.18.14l3.14,9c0,.08,0,.14-.1.14h-1.34a.17.17,0,0,1-.18-.14l-.61-1.8h-3.5l-.62,1.8a.16.16,0,0,1-.18.14h-1.33c-.1,0-.12-.05-.1-.14Zm2,5.78-1.23-3.61h0l-1.24,3.61Z"/><path class="cls-1" d="M139.09,93.9a.13.13,0,0,1,.14-.14h1.34a.13.13,0,0,1,.14.14v7.63a.07.07,0,0,0,.08.08H145a.13.13,0,0,1,.14.14v1.18a.13.13,0,0,1-.14.14h-5.82a.13.13,0,0,1-.14-.14Z"/><path class="cls-1" d="M147.83,93.9a.13.13,0,0,1,.14-.14h5.82a.13.13,0,0,1,.14.14v1.17a.13.13,0,0,1-.14.14h-4.26a.07.07,0,0,0-.08.08v2.27a.07.07,0,0,0,.08.08h3.59a.13.13,0,0,1,.14.14V99a.13.13,0,0,1-.14.14h-3.59a.07.07,0,0,0-.08.08v2.35a.07.07,0,0,0,.08.08h4.26a.13.13,0,0,1,.14.14v1.18a.13.13,0,0,1-.14.14H148a.13.13,0,0,1-.14-.14Z"/><path class="cls-1" d="M156.42,102a.15.15,0,0,1,0-.2l.85-1a.12.12,0,0,1,.19,0,4.16,4.16,0,0,0,2.53,1c1.11,0,1.75-.56,1.75-1.34s-.41-1.11-1.69-1.29l-.49-.07c-1.79-.25-2.8-1.11-2.8-2.65s1.23-2.8,3.14-2.8a5.11,5.11,0,0,1,3,.93.12.12,0,0,1,0,.19l-.66,1a.14.14,0,0,1-.19,0,3.92,3.92,0,0,0-2.23-.72c-.94,0-1.46.52-1.46,1.24s.45,1.08,1.71,1.26l.49.07c1.79.25,2.77,1.09,2.77,2.69s-1.19,2.88-3.5,2.88A5.24,5.24,0,0,1,156.42,102Z"/><path class="cls-1" d="M15.82,101.69h-.2a.65.65,0,0,1-.56-.3l-2.58-3.31c1.2-.93,1.61-1.53,1.61-2.38a2.14,2.14,0,0,0-2.27-2.09,2.18,2.18,0,0,0-2.31,2.13c0,.68.29,1.16,1,2.13-1.31,1-1.76,1.86-1.76,2.84a2.34,2.34,0,0,0,2.58,2.49,2.81,2.81,0,0,0,1.38-.35l-.84-1a1.45,1.45,0,0,1-.44.07,1.18,1.18,0,0,1-1.27-1.24c0-.51.26-1,1.15-1.72l0,.05h0l2.7,3.45a1.41,1.41,0,0,0,1.28.64h.45a.13.13,0,0,0,.14-.14v-1.09A.13.13,0,0,0,15.82,101.69ZM11.67,97c-.61-.81-.72-1-.72-1.34a.88.88,0,0,1,1.75,0C12.69,96.09,12.53,96.37,11.67,97Z"/><path class="cls-1" d="M48.91,102.56l-1-1a3.78,3.78,0,0,0,.27-.63,7.53,7.53,0,0,0,.25-2.56,7.53,7.53,0,0,0-.25-2.56,3.2,3.2,0,0,0-3.29-2.24,3.19,3.19,0,0,0-3.28,2.24,7.53,7.53,0,0,0-.25,2.56A7.53,7.53,0,0,0,41.6,101a3.19,3.19,0,0,0,3.28,2.24,4.5,4.5,0,0,0,.73-.06l-2-1.86h0a1.88,1.88,0,0,1-.47-.73A7.43,7.43,0,0,1,43,98.41a7.35,7.35,0,0,1,.16-2.13,1.87,1.87,0,0,1,3.51,0,7.35,7.35,0,0,1,.16,2.13,8.08,8.08,0,0,1-.14,2l-.83-.81a.12.12,0,0,0-.19,0l-.86.9a.13.13,0,0,0,0,.19l.07.06h0l3,2.83,0,0a.14.14,0,0,0,.2,0l.85-.9A.13.13,0,0,0,48.91,102.56Z"/><polygon class="cls-2" points="86.05 14.09 110.4 30.82 110.4 29.86 86.49 13.44 86.05 14.09"/><polygon class="cls-2" points="86.49 7.13 86.05 7.78 110.4 24.5 110.4 23.55 86.49 7.13"/><polygon class="cls-2" points="86.49 0.82 86.05 1.47 110.4 18.2 110.4 17.24 86.49 0.82"/><polygon class="cls-2" points="87.2 14.25 86.08 12.62 63.07 28.37 63.07 30.76 87.2 14.25"/><polygon class="cls-2" points="86.08 6.31 63.07 22.07 63.07 24.45 87.2 7.94 86.08 6.31"/><polygon class="cls-2" points="86.08 0 63.07 15.76 63.07 18.14 87.2 1.63 86.08 0"/><polygon class="cls-2" points="87.2 33.17 86.08 31.55 74.9 39.2 74.9 41.59 87.2 33.17"/><polygon class="cls-2" points="86.08 18.93 74.9 26.58 74.9 28.97 87.2 20.56 86.08 18.93"/><polygon class="cls-2" points="86.08 25.24 74.9 32.89 74.9 35.28 87.2 26.87 86.08 25.24"/><polygon class="cls-2" points="87.2 39.48 86.08 37.86 74.9 45.51 74.9 47.9 87.2 39.48"/><polygon class="cls-2" points="87.2 45.8 86.08 44.17 74.9 51.82 74.9 54.21 87.2 45.8"/><polygon class="cls-2" points="87.2 52.1 86.08 50.48 62.39 66.7 64.14 67.9 87.2 52.1"/><polygon class="cls-2" points="87.2 58.41 86.08 56.79 66.99 69.86 68.73 71.06 87.2 58.41"/><polygon class="cls-2" points="87.2 64.65 86.08 63.02 71.54 72.98 73.28 74.18 87.2 64.65"/><polygon class="cls-2" points="52.94 54.24 52.94 56.63 60.82 51.24 59.08 50.04 52.94 54.24"/><polygon class="cls-2" points="53.19 60.38 54.93 61.58 65.42 54.4 63.68 53.2 53.19 60.38"/><polygon class="cls-2" points="68.28 56.36 57.79 63.54 59.53 64.74 70.02 57.56 68.28 56.36"/><polygon class="cls-2" points="86.49 19.75 86.05 20.4 97.78 28.46 97.78 27.5 86.49 19.75"/><polygon class="cls-2" points="86.05 26.71 97.78 34.77 97.78 33.81 86.49 26.06 86.05 26.71"/><polygon class="cls-2" points="86.63 57.73 86.19 58.38 97.78 66.34 97.78 65.38 86.63 57.73"/><polygon class="cls-2" points="86.84 51.55 86.4 52.2 97.78 60.01 97.78 59.06 86.84 51.55"/><polygon class="cls-2" points="86.19 64.69 97.78 72.65 97.78 71.69 86.63 64.04 86.19 64.69"/><polygon class="cls-2" points="86.49 44.99 86.05 45.64 97.78 53.7 97.78 52.74 86.49 44.99"/><polygon class="cls-2" points="86.49 38.68 86.05 39.33 105.07 52.39 105.07 51.44 86.49 38.68"/><polygon class="cls-2" points="86.49 32.37 86.05 33.02 105.07 46.09 105.07 45.13 86.49 32.37"/></g></g></svg>