<svg xmlns="http://www.w3.org/2000/svg" viewBox="0 0 163.33 10.09"><defs><style>.cls-1{fill:#231f20;}</style></defs><title>Asset 4</title><g id="Layer_2" data-name="Layer 2"><g id="Layer_1-2" data-name="Layer 1"><path class="cls-1" d="M.06,8.28l1-.75a.14.14,0,0,1,.2,0,1.7,1.7,0,0,0,1.24.57c1,0,1.54-.61,1.54-1.83v-6A.13.13,0,0,1,4.18.15H5.52a.13.13,0,0,1,.14.14v6A3,3,0,0,1,2.45,9.59,3,3,0,0,1,0,8.47.13.13,0,0,1,.06,8.28Z"/><path class="cls-1" d="M19.07.29A.13.13,0,0,1,19.2.15H25a.13.13,0,0,1,.14.14V1.46A.13.13,0,0,1,25,1.6H20.76a.07.07,0,0,0-.08.08V4a.07.07,0,0,0,.08.08h3.59a.13.13,0,0,1,.14.14V5.44a.13.13,0,0,1-.14.14H20.76a.07.07,0,0,0-.08.08V9.31a.13.13,0,0,1-.14.14H19.2a.13.13,0,0,1-.14-.14Z"/><path class="cls-1" d="M32.55.29a.13.13,0,0,1,.14-.14H38.5a.13.13,0,0,1,.14.14V1.46a.13.13,0,0,1-.14.14H34.24a.07.07,0,0,0-.08.08V3.95a.07.07,0,0,0,.08.08h3.59a.13.13,0,0,1,.14.14V5.34a.13.13,0,0,1-.14.14H34.24a.07.07,0,0,0-.08.08V7.91a.07.07,0,0,0,.08.08H38.5a.13.13,0,0,1,.14.14V9.31a.13.13,0,0,1-.14.14H32.68a.13.13,0,0,1-.14-.14Z"/><path class="cls-1" d="M56.67,6.15V.29a.13.13,0,0,1,.14-.14h1.34a.13.13,0,0,1,.14.14V6.18a3.42,3.42,0,0,1-6.85,0V.29a.13.13,0,0,1,.14-.14h1.34A.13.13,0,0,1,53,.29V6.15a1.82,1.82,0,1,0,3.62,0Z"/><path class="cls-1" d="M61.57.29a.13.13,0,0,1,.14-.14H63a.13.13,0,0,1,.14.14v9a.13.13,0,0,1-.14.14H61.71a.13.13,0,0,1-.14-.14Z"/><path class="cls-1" d="M66.66,9.44a.13.13,0,0,1-.14-.14v-9a.13.13,0,0,1,.14-.14h3.48A2.83,2.83,0,0,1,73.21,3a2.84,2.84,0,0,1-3.06,2.9H68.22a.07.07,0,0,0-.08.08V9.31a.13.13,0,0,1-.14.14ZM71.6,3A1.4,1.4,0,0,0,70.05,1.6H68.22a.07.07,0,0,0-.08.08V4.39a.07.07,0,0,0,.08.08h1.83A1.39,1.39,0,0,0,71.6,3Z"/><path class="cls-1" d="M76,.29a.13.13,0,0,1,.14-.14h1.22a.22.22,0,0,1,.23.14L80.13,6h.05L82.7.29a.22.22,0,0,1,.23-.14h1.2a.13.13,0,0,1,.14.14v9a.13.13,0,0,1-.14.14H82.95a.13.13,0,0,1-.14-.14V3.62h-.06L80.79,8a.26.26,0,0,1-.26.18h-.79A.26.26,0,0,1,79.48,8l-2-4.37h-.05V9.31a.13.13,0,0,1-.14.14H76.13A.13.13,0,0,1,76,9.31Z"/><path class="cls-1" d="M87.61.29a.13.13,0,0,1,.14-.14h5.82a.13.13,0,0,1,.14.14V1.46a.13.13,0,0,1-.14.14H89.31a.07.07,0,0,0-.08.08V3.95a.07.07,0,0,0,.08.08H92.9a.13.13,0,0,1,.14.14V5.34a.13.13,0,0,1-.14.14H89.31a.07.07,0,0,0-.08.08V7.91a.07.07,0,0,0,.08.08h4.26a.13.13,0,0,1,.14.14V9.31a.13.13,0,0,1-.14.14H87.75a.13.13,0,0,1-.14-.14Z"/><path class="cls-1" d="M96.7.29a.13.13,0,0,1,.14-.14h1.26a.24.24,0,0,1,.23.14l3.78,6.41h.05V.29a.13.13,0,0,1,.14-.14h1.19a.13.13,0,0,1,.14.14v9a.13.13,0,0,1-.14.14h-1.24a.24.24,0,0,1-.23-.14l-3.8-6.4h-.05v6.4a.13.13,0,0,1-.14.14H96.83a.13.13,0,0,1-.14-.14Z"/><path class="cls-1" d="M109,9.44a.13.13,0,0,1-.14-.14V1.68a.07.07,0,0,0-.08-.08h-2.43a.13.13,0,0,1-.14-.14V.29a.13.13,0,0,1,.14-.14H113a.13.13,0,0,1,.14.14V1.46a.13.13,0,0,1-.14.14h-2.43a.07.07,0,0,0-.08.08V9.31a.13.13,0,0,1-.14.14Z"/><path class="cls-1" d="M119.65,8.36a.15.15,0,0,1,0-.2l.85-1a.12.12,0,0,1,.19,0,4.15,4.15,0,0,0,2.53,1c1.11,0,1.75-.56,1.75-1.34s-.41-1.11-1.69-1.29l-.49-.07C121,5.21,120,4.35,120,2.8S121.18,0,123.1,0a5.11,5.11,0,0,1,3,.93.12.12,0,0,1,0,.19l-.66,1a.14.14,0,0,1-.19,0,3.92,3.92,0,0,0-2.23-.72c-.94,0-1.46.52-1.46,1.24s.45,1.08,1.71,1.26l.49.07c1.79.25,2.77,1.09,2.77,2.69s-1.19,2.88-3.5,2.88A5.24,5.24,0,0,1,119.65,8.36Z"/><path class="cls-1" d="M131.77.29a.18.18,0,0,1,.18-.14h1.26a.18.18,0,0,1,.18.14l3.14,9c0,.08,0,.14-.1.14h-1.34a.17.17,0,0,1-.18-.14l-.61-1.8h-3.5l-.62,1.8a.16.16,0,0,1-.18.14h-1.33c-.1,0-.12-.05-.1-.14Zm2,5.78-1.23-3.61h0l-1.24,3.61Z"/><path class="cls-1" d="M139.09.29a.13.13,0,0,1,.14-.14h1.34a.13.13,0,0,1,.14.14V7.91a.07.07,0,0,0,.08.08H145a.13.13,0,0,1,.14.14V9.31a.13.13,0,0,1-.14.14h-5.82a.13.13,0,0,1-.14-.14Z"/><path class="cls-1" d="M147.83.29A.13.13,0,0,1,148,.15h5.82a.13.13,0,0,1,.14.14V1.46a.13.13,0,0,1-.14.14h-4.26a.07.07,0,0,0-.08.08V3.95a.07.07,0,0,0,.08.08h3.59a.13.13,0,0,1,.14.14V5.34a.13.13,0,0,1-.14.14h-3.59a.07.07,0,0,0-.08.08V7.91a.07.07,0,0,0,.08.08h4.26a.13.13,0,0,1,.14.14V9.31a.13.13,0,0,1-.14.14H148a.13.13,0,0,1-.14-.14Z"/><path class="cls-1" d="M156.42,8.36a.15.15,0,0,1,0-.2l.85-1a.12.12,0,0,1,.19,0,4.16,4.16,0,0,0,2.53,1c1.11,0,1.75-.56,1.75-1.34S161.3,5.7,160,5.52l-.49-.07c-1.79-.25-2.8-1.11-2.8-2.65S158,0,159.86,0a5.11,5.11,0,0,1,3,.93.12.12,0,0,1,0,.19l-.66,1a.14.14,0,0,1-.19,0,3.92,3.92,0,0,0-2.23-.72c-.94,0-1.46.52-1.46,1.24s.45,1.08,1.71,1.26l.49.07c1.79.25,2.77,1.09,2.77,2.69s-1.19,2.88-3.5,2.88A5.24,5.24,0,0,1,156.42,8.36Z"/><path class="cls-1" d="M15.82,8.08h-.2a.65.65,0,0,1-.56-.3L12.47,4.47c1.2-.93,1.61-1.53,1.61-2.38A2.14,2.14,0,0,0,11.82,0,2.18,2.18,0,0,0,9.51,2.13c0,.68.29,1.16,1,2.13-1.31,1-1.76,1.86-1.76,2.84a2.34,2.34,0,0,0,2.58,2.49,2.81,2.81,0,0,0,1.38-.35l-.84-1a1.45,1.45,0,0,1-.44.07A1.18,1.18,0,0,1,10.2,7c0-.51.26-1,1.15-1.72l0,.05h0l2.7,3.45a1.41,1.41,0,0,0,1.28.64h.45A.13.13,0,0,0,16,9.31V8.21A.13.13,0,0,0,15.82,8.08ZM11.67,3.43c-.61-.81-.72-1-.72-1.34a.88.88,0,0,1,1.75,0C12.69,2.47,12.53,2.76,11.67,3.43Z"/><path class="cls-1" d="M48.91,9l-1-1a3.78,3.78,0,0,0,.27-.63,7.53,7.53,0,0,0,.25-2.56,7.53,7.53,0,0,0-.25-2.56A3.2,3.2,0,0,0,44.88,0,3.19,3.19,0,0,0,41.6,2.24a7.53,7.53,0,0,0-.25,2.56,7.53,7.53,0,0,0,.25,2.56,3.19,3.19,0,0,0,3.28,2.24,4.5,4.5,0,0,0,.73-.06l-2-1.86h0a1.88,1.88,0,0,1-.47-.73A7.43,7.43,0,0,1,43,4.8a7.35,7.35,0,0,1,.16-2.13,1.87,1.87,0,0,1,3.51,0,7.35,7.35,0,0,1,.16,2.13,8.08,8.08,0,0,1-.14,2L45.84,6a.12.12,0,0,0-.19,0l-.86.9a.13.13,0,0,0,0,.19l.07.06h0l3,2.83,0,0a.14.14,0,0,0,.2,0l.85-.9A.13.13,0,0,0,48.91,9Z"/></g></g></svg>