<svg xmlns="http://www.w3.org/2000/svg" viewBox="0 0 57.46 74.18"><defs><style>.cls-1{fill:#a41e22;}</style></defs><title>Asset 2</title><g id="Layer_2" data-name="Layer 2"><g id="Layer_1-2" data-name="Layer 1"><polygon class="cls-1" points="33.11 14.09 57.46 30.82 57.46 29.86 33.56 13.44 33.11 14.09"/><polygon class="cls-1" points="33.56 7.13 33.11 7.78 57.46 24.5 57.46 23.55 33.56 7.13"/><polygon class="cls-1" points="33.56 0.82 33.11 1.47 57.46 18.2 57.46 17.24 33.56 0.82"/><polygon class="cls-1" points="34.26 14.25 33.15 12.62 10.14 28.37 10.14 30.76 34.26 14.25"/><polygon class="cls-1" points="33.15 6.31 10.14 22.07 10.14 24.45 34.26 7.94 33.15 6.31"/><polygon class="cls-1" points="33.15 0 10.14 15.76 10.14 18.14 34.26 1.63 33.15 0"/><polygon class="cls-1" points="34.26 33.17 33.15 31.55 21.97 39.2 21.97 41.59 34.26 33.17"/><polygon class="cls-1" points="33.15 18.93 21.97 26.58 21.97 28.97 34.26 20.56 33.15 18.93"/><polygon class="cls-1" points="33.15 25.24 21.97 32.89 21.97 35.28 34.26 26.87 33.15 25.24"/><polygon class="cls-1" points="34.26 39.48 33.15 37.86 21.97 45.51 21.97 47.9 34.26 39.48"/><polygon class="cls-1" points="34.26 45.8 33.15 44.17 21.97 51.82 21.97 54.21 34.26 45.8"/><polygon class="cls-1" points="34.26 52.1 33.15 50.48 9.46 66.7 11.2 67.9 34.26 52.1"/><polygon class="cls-1" points="34.26 58.41 33.15 56.79 14.06 69.86 15.8 71.06 34.26 58.41"/><polygon class="cls-1" points="34.26 64.65 33.15 63.02 18.6 72.98 20.34 74.18 34.26 64.65"/><polygon class="cls-1" points="0 54.24 0 56.63 7.88 51.24 6.14 50.04 0 54.24"/><polygon class="cls-1" points="0.25 60.38 2 61.58 12.48 54.4 10.74 53.2 0.25 60.38"/><polygon class="cls-1" points="15.34 56.36 4.85 63.54 6.6 64.74 17.08 57.56 15.34 56.36"/><polygon class="cls-1" points="33.56 19.75 33.11 20.4 44.84 28.46 44.84 27.5 33.56 19.75"/><polygon class="cls-1" points="33.11 26.71 44.84 34.77 44.84 33.81 33.56 26.06 33.11 26.71"/><polygon class="cls-1" points="33.7 57.73 33.25 58.38 44.84 66.34 44.84 65.38 33.7 57.73"/><polygon class="cls-1" points="33.91 51.55 33.46 52.2 44.84 60.01 44.84 59.06 33.91 51.55"/><polygon class="cls-1" points="33.25 64.69 44.84 72.65 44.84 71.69 33.7 64.04 33.25 64.69"/><polygon class="cls-1" points="33.56 44.99 33.11 45.64 44.84 53.7 44.84 52.74 33.56 44.99"/><polygon class="cls-1" points="33.56 38.68 33.11 39.33 52.13 52.39 52.13 51.44 33.56 38.68"/><polygon class="cls-1" points="33.56 32.37 33.11 33.02 52.13 46.09 52.13 45.13 33.56 32.37"/></g></g></svg>