<svg xmlns="http://www.w3.org/2000/svg" viewBox="0 0 163.33 103.7"><defs><style>.cls-1{fill:#231f20;}.cls-2{fill:#a41e22;}</style></defs><title>Asset 1</title><g id="Layer_2" data-name="Layer 2"><g id="Layer_1-2" data-name="Layer 1"><path class="cls-1" d="M.06,101.9l1-.75a.14.14,0,0,1,.2,0,1.7,1.7,0,0,0,1.24.57c1,0,1.54-.61,1.54-1.83v-6a.13.13,0,0,1,.14-.14H5.52a.13.13,0,0,1,.14.14v6a3,3,0,0,1-3.21,3.28A3,3,0,0,1,0,102.09.13.13,0,0,1,.06,101.9Z"/><path class="cls-1" d="M19.07,93.9a.13.13,0,0,1,.14-.14H25a.13.13,0,0,1,.14.14v1.17a.13.13,0,0,1-.14.14H20.76a.07.07,0,0,0-.08.08v2.36a.07.07,0,0,0,.08.08h3.59a.13.13,0,0,1,.14.14v1.17a.13.13,0,0,1-.14.14H20.76a.07.07,0,0,0-.08.08v3.65a.13.13,0,0,1-.14.14H19.2a.13.13,0,0,1-.14-.14Z"/><path class="cls-1" d="M32.55,93.9a.13.13,0,0,1,.14-.14H38.5a.13.13,0,0,1,.14.14v1.17a.13.13,0,0,1-.14.14H34.24a.07.07,0,0,0-.08.08v2.27a.07.07,0,0,0,.08.08h3.59a.13.13,0,0,1,.14.14V99a.13.13,0,0,1-.14.14H34.24a.07.07,0,0,0-.08.08v2.35a.07.07,0,0,0,.08.08H38.5a.13.13,0,0,1,.14.14v1.18a.13.13,0,0,1-.14.14H32.68a.13.13,0,0,1-.14-.14Z"/><path class="cls-1" d="M56.67,99.76V93.9a.13.13,0,0,1,.14-.14h1.34a.13.13,0,0,1,.14.14v5.89a3.42,3.42,0,0,1-6.85,0V93.9a.13.13,0,0,1,.14-.14h1.34a.13.13,0,0,1,.14.14v5.86a1.82,1.82,0,1,0,3.62,0Z"/><path class="cls-1" d="M61.57,93.9a.13.13,0,0,1,.14-.14H63a.13.13,0,0,1,.14.14v9a.13.13,0,0,1-.14.14H61.71a.13.13,0,0,1-.14-.14Z"/><path class="cls-1" d="M66.66,103.06a.13.13,0,0,1-.14-.14v-9a.13.13,0,0,1,.14-.14h3.48a2.9,2.9,0,1,1,0,5.78H68.22a.07.07,0,0,0-.08.08v3.29a.13.13,0,0,1-.14.14Zm4.93-6.41a1.4,1.4,0,0,0-1.54-1.43H68.22a.07.07,0,0,0-.08.08V98a.07.07,0,0,0,.08.08h1.83A1.39,1.39,0,0,0,71.6,96.65Z"/><path class="cls-1" d="M76,93.9a.13.13,0,0,1,.14-.14h1.22a.22.22,0,0,1,.23.14l2.56,5.73h.05L82.7,93.9a.22.22,0,0,1,.23-.14h1.2a.13.13,0,0,1,.14.14v9a.13.13,0,0,1-.14.14H82.95a.13.13,0,0,1-.14-.14V97.24h-.06l-2,4.37a.26.26,0,0,1-.26.18h-.79a.26.26,0,0,1-.26-.18l-2-4.37h-.05v5.68a.13.13,0,0,1-.14.14H76.13a.13.13,0,0,1-.14-.14Z"/><path class="cls-1" d="M87.61,93.9a.13.13,0,0,1,.14-.14h5.82a.13.13,0,0,1,.14.14v1.17a.13.13,0,0,1-.14.14H89.31a.07.07,0,0,0-.08.08v2.27a.07.07,0,0,0,.08.08H92.9a.13.13,0,0,1,.14.14V99a.13.13,0,0,1-.14.14H89.31a.07.07,0,0,0-.08.08v2.35a.07.07,0,0,0,.08.08h4.26a.13.13,0,0,1,.14.14v1.18a.13.13,0,0,1-.14.14H87.75a.13.13,0,0,1-.14-.14Z"/><path class="cls-1" d="M96.7,93.9a.13.13,0,0,1,.14-.14h1.26a.24.24,0,0,1,.23.14l3.78,6.41h.05V93.9a.13.13,0,0,1,.14-.14h1.19a.13.13,0,0,1,.14.14v9a.13.13,0,0,1-.14.14h-1.24a.24.24,0,0,1-.23-.14l-3.8-6.4h-.05v6.4a.13.13,0,0,1-.14.14H96.83a.13.13,0,0,1-.14-.14Z"/><path class="cls-1" d="M109,103.06a.13.13,0,0,1-.14-.14V95.3a.07.07,0,0,0-.08-.08h-2.43a.13.13,0,0,1-.14-.14V93.9a.13.13,0,0,1,.14-.14H113a.13.13,0,0,1,.14.14v1.17a.13.13,0,0,1-.14.14h-2.43a.07.07,0,0,0-.08.08v7.63a.13.13,0,0,1-.14.14Z"/><path class="cls-1" d="M119.65,102a.15.15,0,0,1,0-.2l.85-1a.12.12,0,0,1,.19,0,4.15,4.15,0,0,0,2.53,1c1.11,0,1.75-.56,1.75-1.34s-.41-1.11-1.69-1.29l-.49-.07C121,98.82,120,98,120,96.42s1.23-2.8,3.14-2.8a5.11,5.11,0,0,1,3,.93.12.12,0,0,1,0,.19l-.66,1a.14.14,0,0,1-.19,0,3.92,3.92,0,0,0-2.23-.72c-.94,0-1.46.52-1.46,1.24s.45,1.08,1.71,1.26l.49.07c1.79.25,2.77,1.09,2.77,2.69s-1.19,2.88-3.5,2.88A5.24,5.24,0,0,1,119.65,102Z"/><path class="cls-1" d="M131.77,93.9a.18.18,0,0,1,.18-.14h1.26a.18.18,0,0,1,.18.14l3.14,9c0,.08,0,.14-.1.14h-1.34a.17.17,0,0,1-.18-.14l-.61-1.8h-3.5l-.62,1.8a.16.16,0,0,1-.18.14h-1.33c-.1,0-.12-.05-.1-.14Zm2,5.78-1.23-3.61h0l-1.24,3.61Z"/><path class="cls-1" d="M139.09,93.9a.13.13,0,0,1,.14-.14h1.34a.13.13,0,0,1,.14.14v7.63a.07.07,0,0,0,.08.08H145a.13.13,0,0,1,.14.14v1.18a.13.13,0,0,1-.14.14h-5.82a.13.13,0,0,1-.14-.14Z"/><path class="cls-1" d="M147.83,93.9a.13.13,0,0,1,.14-.14h5.82a.13.13,0,0,1,.14.14v1.17a.13.13,0,0,1-.14.14h-4.26a.07.07,0,0,0-.08.08v2.27a.07.07,0,0,0,.08.08h3.59a.13.13,0,0,1,.14.14V99a.13.13,0,0,1-.14.14h-3.59a.07.07,0,0,0-.08.08v2.35a.07.07,0,0,0,.08.08h4.26a.13.13,0,0,1,.14.14v1.18a.13.13,0,0,1-.14.14H148a.13.13,0,0,1-.14-.14Z"/><path class="cls-1" d="M156.42,102a.15.15,0,0,1,0-.2l.85-1a.12.12,0,0,1,.19,0,4.16,4.16,0,0,0,2.53,1c1.11,0,1.75-.56,1.75-1.34s-.41-1.11-1.69-1.29l-.49-.07c-1.79-.25-2.8-1.11-2.8-2.65s1.23-2.8,3.14-2.8a5.11,5.11,0,0,1,3,.93.12.12,0,0,1,0,.19l-.66,1a.14.14,0,0,1-.19,0,3.92,3.92,0,0,0-2.23-.72c-.94,0-1.46.52-1.46,1.24s.45,1.08,1.71,1.26l.49.07c1.79.25,2.77,1.09,2.77,2.69s-1.19,2.88-3.5,2.88A5.24,5.24,0,0,1,156.42,102Z"/><path class="cls-1" d="M15.82,101.69h-.2a.65.65,0,0,1-.56-.3l-2.58-3.31c1.2-.93,1.61-1.53,1.61-2.38a2.14,2.14,0,0,0-2.27-2.09,2.18,2.18,0,0,0-2.31,2.13c0,.68.29,1.16,1,2.13-1.31,1-1.76,1.86-1.76,2.84a2.34,2.34,0,0,0,2.58,2.49,2.81,2.81,0,0,0,1.38-.35l-.84-1a1.45,1.45,0,0,1-.44.07,1.18,1.18,0,0,1-1.27-1.24c0-.51.26-1,1.15-1.72l0,.05h0l2.7,3.45a1.41,1.41,0,0,0,1.28.64h.45a.13.13,0,0,0,.14-.14v-1.09A.13.13,0,0,0,15.82,101.69ZM11.67,97c-.61-.81-.72-1-.72-1.34a.88.88,0,0,1,1.75,0C12.69,96.09,12.53,96.37,11.67,97Z"/><path class="cls-1" d="M48.91,102.56l-1-1a3.78,3.78,0,0,0,.27-.63,7.53,7.53,0,0,0,.25-2.56,7.53,7.53,0,0,0-.25-2.56,3.2,3.2,0,0,0-3.29-2.24,3.19,3.19,0,0,0-3.28,2.24,7.53,7.53,0,0,0-.25,2.56A7.53,7.53,0,0,0,41.6,101a3.19,3.19,0,0,0,3.28,2.24,4.5,4.5,0,0,0,.73-.06l-2-1.86h0a1.88,1.88,0,0,1-.47-.73A7.43,7.43,0,0,1,43,98.41a7.35,7.35,0,0,1,.16-2.13,1.87,1.87,0,0,1,3.51,0,7.35,7.35,0,0,1,.16,2.13,8.08,8.08,0,0,1-.14,2l-.83-.81a.12.12,0,0,0-.19,0l-.86.9a.13.13,0,0,0,0,.19l.07.06h0l3,2.83,0,0a.14.14,0,0,0,.2,0l.85-.9A.13.13,0,0,0,48.91,102.56Z"/><polygon class="cls-2" points="82.07 14.09 106.42 30.82 106.42 29.86 82.52 13.44 82.07 14.09"/><polygon class="cls-2" points="82.52 7.13 82.07 7.78 106.42 24.5 106.42 23.55 82.52 7.13"/><polygon class="cls-2" points="82.52 0.82 82.07 1.47 106.42 18.2 106.42 17.24 82.52 0.82"/><polygon class="cls-2" points="83.22 14.25 82.11 12.62 59.09 28.37 59.09 30.76 83.22 14.25"/><polygon class="cls-2" points="82.11 6.31 59.09 22.07 59.09 24.45 83.22 7.94 82.11 6.31"/><polygon class="cls-2" points="82.11 0 59.09 15.76 59.09 18.14 83.22 1.63 82.11 0"/><polygon class="cls-2" points="83.22 33.17 82.11 31.55 70.93 39.2 70.93 41.59 83.22 33.17"/><polygon class="cls-2" points="82.11 18.93 70.93 26.58 70.93 28.97 83.22 20.56 82.11 18.93"/><polygon class="cls-2" points="82.11 25.24 70.93 32.89 70.93 35.28 83.22 26.87 82.11 25.24"/><polygon class="cls-2" points="83.22 39.48 82.11 37.86 70.93 45.51 70.93 47.9 83.22 39.48"/><polygon class="cls-2" points="83.22 45.8 82.11 44.17 70.93 51.82 70.93 54.21 83.22 45.8"/><polygon class="cls-2" points="83.22 52.1 82.11 50.48 58.41 66.7 60.16 67.9 83.22 52.1"/><polygon class="cls-2" points="83.22 58.41 82.11 56.79 63.02 69.86 64.76 71.06 83.22 58.41"/><polygon class="cls-2" points="83.22 64.65 82.11 63.02 67.56 72.98 69.3 74.18 83.22 64.65"/><polygon class="cls-2" points="48.96 54.24 48.96 56.63 56.84 51.24 55.1 50.04 48.96 54.24"/><polygon class="cls-2" points="49.21 60.38 50.95 61.58 61.44 54.4 59.7 53.2 49.21 60.38"/><polygon class="cls-2" points="64.3 56.36 53.81 63.54 55.55 64.74 66.04 57.56 64.3 56.36"/><polygon class="cls-2" points="82.52 19.75 82.07 20.4 93.8 28.46 93.8 27.5 82.52 19.75"/><polygon class="cls-2" points="82.07 26.71 93.8 34.77 93.8 33.81 82.52 26.06 82.07 26.71"/><polygon class="cls-2" points="82.66 57.73 82.21 58.38 93.8 66.34 93.8 65.38 82.66 57.73"/><polygon class="cls-2" points="82.86 51.55 82.42 52.2 93.8 60.01 93.8 59.06 82.86 51.55"/><polygon class="cls-2" points="82.21 64.69 93.8 72.65 93.8 71.69 82.66 64.04 82.21 64.69"/><polygon class="cls-2" points="82.52 44.99 82.07 45.64 93.8 53.7 93.8 52.74 82.52 44.99"/><polygon class="cls-2" points="82.52 38.68 82.07 39.33 101.09 52.39 101.09 51.44 82.52 38.68"/><polygon class="cls-2" points="82.52 32.37 82.07 33.02 101.09 46.09 101.09 45.13 82.52 32.37"/></g></g></svg>