<svg xmlns="http://www.w3.org/2000/svg" viewBox="0 0 10.71 8.87"><defs><style>.cls-1{fill:#231f20;}</style></defs><title>Asset 2</title><g id="Layer_2" data-name="Layer 2"><g id="Layer_1-2" data-name="Layer 1"><path class="cls-1" d="M6.71.1A2.24,2.24,0,0,0,5.2,2.36l0,.38-.39,0A6.29,6.29,0,0,1,1.15.88L.64.37.51.75A2.26,2.26,0,0,0,1,3.06c.31.33.24.38-.29.18a.9.9,0,0,0-.36-.09,2.81,2.81,0,0,0,.28,1,2.5,2.5,0,0,0,1.06,1l.38.18H1.6c-.43,0-.45,0-.4.17A2.34,2.34,0,0,0,2.65,6.85L3.13,7l-.42.25a4.33,4.33,0,0,1-2.07.58A2.29,2.29,0,0,0,0,7.91a5.93,5.93,0,0,0,1.49.69A6.53,6.53,0,0,0,6.57,8,6.8,6.8,0,0,0,9.15,5a8.07,8.07,0,0,0,.53-2.35c0-.36,0-.41.46-.84a5.21,5.21,0,0,0,.54-.6c.08-.15.07-.15-.32,0-.66.23-.75.2-.43-.15a2.28,2.28,0,0,0,.53-.84s-.12,0-.25.09a4.25,4.25,0,0,1-.68.27L9.1.68,8.72.42A3.16,3.16,0,0,0,8.07.07,2.64,2.64,0,0,0,6.71.1Z"/></g></g></svg>